<svg xmlns="http://www.w3.org/2000/svg" viewBox="0 0 546.2 228.65"><defs><style>.a,.b,.d,.f,.j{fill:none;}.b{stroke:#ad343d;}.b,.d,.j{stroke-linecap:round;stroke-linejoin:round;}.b,.j{stroke-width:3.49px;}.c{fill:#fff;}.d,.f{stroke:#000;}.d{stroke-width:2.83px;}.e,.h,.i{font-size:19.2px;font-family:Helvetica Neue;}.f{stroke-width:2.4px;}.g{fill-rule:evenodd;}.h{fill:#170080;}.i{fill:maroon;}.j{stroke:#3f21c0;}</style></defs><title>LifeCycleStateMachine-hierarchical</title><path class="a" d="M13.9,107.27C13,161.43-21.35,223.35,122.13,233.21c20.64,1.43,106.66-4.89,123.42-39.72,33.91-70.5,14.2-158.45-65-163.31C83.67,24.23,14.82,53.1,13.9,107.27Z" transform="translate(-7.92 -6.49)"/><path class="b" d="M13.9,107.27C13,161.43-21.35,223.35,122.13,233.21c20.64,1.43,106.66-4.89,123.42-39.72,33.91-70.5,14.2-158.45-65-163.31C83.67,24.23,14.82,53.1,13.9,107.27Z" transform="translate(-7.92 -6.49)"/><path class="a" d="M549.28,78.17c8.78,37.91,1,126.28-52.13,144.13S337,232.49,314.73,196.52s-66.62-178.3,20.7-183.9C432.28,6.42,536.11,21.28,549.28,78.17Z" transform="translate(-7.92 -6.49)"/><path class="b" d="M549.28,78.17c8.78,37.91,1,126.28-52.13,144.13S337,232.49,314.73,196.52s-66.62-178.3,20.7-183.9C432.28,6.42,536.11,21.28,549.28,78.17Z" transform="translate(-7.92 -6.49)"/><ellipse class="c" cx="73.84" cy="81.11" rx="53.67" ry="28.57"/><ellipse class="d" cx="73.84" cy="81.11" rx="53.67" ry="28.57"/><text class="e" transform="translate(34.46 86.33)">c<tspan x="10.31" y="0">r</tspan><tspan x="16.32" y="0">eating</tspan></text><ellipse class="c" cx="180.41" cy="119.1" rx="55.57" ry="38.06"/><ellipse class="d" cx="180.41" cy="119.1" rx="55.57" ry="38.06"/><text class="e" transform="translate(147.16 100.33)">con</text><text class="e" transform="translate(181.59 100.33)">ﬁ</text><text class="e" transform="translate(193.67 100.33)">g-</text><text class="e" transform="translate(155.13 119.53)">uring</text><text class="e" transform="translate(133.46 138.73)">r<tspan x="5.99" y="0">esou</tspan><tspan x="47.6" y="0">r</tspan><tspan x="53.63" y="0">ces</tspan></text><ellipse class="c" cx="376.43" cy="44.65" rx="64.98" ry="31.61"/><ellipse class="d" cx="376.43" cy="44.65" rx="64.98" ry="31.61"/><text class="e" transform="translate(330.97 38.85)">configuring<tspan x="0" y="23.04">capabilities</tspan></text><ellipse class="c" cx="477.5" cy="104.64" rx="53.67" ry="28.57"/><ellipse class="d" cx="477.5" cy="104.64" rx="53.67" ry="28.57"/><text class="e" transform="translate(441.32 108.25)">ru<tspan x="17.07" y="0">n</tspan><tspan x="27.78" y="0">ning</tspan></text><ellipse class="c" cx="378.65" cy="174.01" rx="53.67" ry="28.57"/><ellipse class="d" cx="378.65" cy="174.01" rx="53.67" ry="28.57"/><text class="e" transform="translate(342.47 179.22)">pausing</text><ellipse class="c" cx="75.68" cy="178.74" rx="53.67" ry="28.57"/><ellipse class="d" cx="75.68" cy="178.74" rx="53.67" ry="28.57"/><text class="e" transform="translate(36.29 183.95)">deleting</text><path class="f" d="M111,63.75C172.42,19.3,184.58,85,184.58,85" transform="translate(-7.92 -6.49)"/><path class="g" d="M188,71.64l-2.83,16.52-8.55-14.42A9.84,9.84,0,0,0,188,71.64Z" transform="translate(-7.92 -6.49)"/><path class="f" d="M439.66,187.3c42,7.27,51.23-44.21,51.23-44.21" transform="translate(-7.92 -6.49)"/><path class="g" d="M483,154.43L491.42,140l2.93,16.51A9.84,9.84,0,0,0,483,154.43Z" transform="translate(-7.92 -6.49)"/><path class="f" d="M437.49,123.34c-20,.16-29.39,25.93-29.39,25.93" transform="translate(-7.92 -6.49)"/><path class="g" d="M417.85,139.45L407,152.26,407,135.5A9.84,9.84,0,0,0,417.85,139.45Z" transform="translate(-7.92 -6.49)"/><path class="f" d="M320.61,60.94c-19.83,47.72-75.84,63.22-75.84,63.22" transform="translate(-7.92 -6.49)"/><path class="g" d="M258.42,126.41L241.71,125l13.62-9.77A9.85,9.85,0,0,0,258.42,126.41Z" transform="translate(-7.92 -6.49)"/><path class="f" d="M197.46,164.28C183.4,193.75,140,192.38,140,192.38" transform="translate(-7.92 -6.49)"/><path class="g" d="M152.34,198.58L136.8,192.3,152.71,187A9.84,9.84,0,0,0,152.34,198.58Z" transform="translate(-7.92 -6.49)"/><path class="f" d="M352.86,155.59C325.6,123.94,342.29,80.3,342.29,80.3" transform="translate(-7.92 -6.49)"/><path class="g" d="M332.38,90l11-12.63-0.21,16.76A9.85,9.85,0,0,0,332.38,90Z" transform="translate(-7.92 -6.49)"/><path class="f" d="M362.48,79.41c17.52,22.8,5.62,70.46,5.62,70.46" transform="translate(-7.92 -6.49)"/><path class="g" d="M376.78,139.1L367.35,153l-1.8-16.66A9.84,9.84,0,0,0,376.78,139.1Z" transform="translate(-7.92 -6.49)"/><text class="h" transform="translate(459.03 56.08) rotate(2.61)">r<tspan x="5.99" y="0">eady</tspan></text><path class="f" d="M215,89.88c1.92-67.3,102.69-43.42,102.69-43.42" transform="translate(-7.92 -6.49)"/><path class="g" d="M306.79,37.91l14,9.26-16.64,2A9.85,9.85,0,0,0,306.79,37.91Z" transform="translate(-7.92 -6.49)"/><text class="i" transform="translate(15.02 35.93) rotate(-13.4)">deploying</text><path class="j" d="M541.43,96.54c18,25.5-38.15,85-64.55,98.87s-131.62,34.28-144.45-1.69-11.92-34,60.13-82.4C449.2,73.25,507.73,48.86,541.43,96.54Z" transform="translate(-7.92 -6.49)"/><text class="i" transform="translate(487.84 14.55) rotate(27.82)">active</text></svg>